<svg width="44" height="30" viewBox="0 0 44 30" fill="none" xmlns="http://www.w3.org/2000/svg">
<rect x="0.499512" y="0.5" width="43" height="29" rx="5.5" fill="white" stroke="#D9D9D9"/>
<path fill-rule="evenodd" clip-rule="evenodd" d="M25.0299 14.36H26.4705C26.9273 14.3436 27.2051 14.3087 27.3051 14.2539C27.4416 14.1791 27.5333 14.0294 27.5789 13.8048C27.6081 13.6553 27.6227 13.433 27.6227 13.1378C27.6227 12.7761 27.5937 12.508 27.5355 12.3329C27.4524 12.0876 27.2533 11.9382 26.938 11.884C26.8757 11.8758 26.7264 11.8714 26.49 11.8714H25.0299V14.36ZM22.7191 18.5518V10H27.0243C27.6148 10 28.0654 10.048 28.375 10.144C29.0831 10.365 29.5582 10.8174 29.8015 11.5012C29.9271 11.8601 29.9899 12.4004 29.9899 13.1219C29.9899 13.9893 29.9202 14.6127 29.7824 14.9923C29.5063 15.7428 28.9379 16.1751 28.0796 16.2871C27.9786 16.3039 27.5492 16.319 26.7912 16.331L26.4075 16.3438H25.0299V18.5518H22.7191ZM11.1159 12.7279H13.2656C13.2794 12.539 13.2864 12.3977 13.2864 12.3032C13.2864 11.1509 12.8187 10.4496 11.8832 10.1993C11.4999 10.0969 10.8569 10.0452 9.95464 10.0452C9.38153 10.0452 8.8605 10.0661 8.39083 10.1068C7.82636 10.1521 7.36263 10.3034 7.00024 10.5613C6.75285 10.7292 6.57359 10.9748 6.46234 11.2983C6.3512 11.6217 6.29557 12.0516 6.29557 12.5878C6.29557 13.2918 6.39849 13.8181 6.60421 14.166C6.83827 14.5754 7.30732 14.845 8.01115 14.9762C8.27844 15.0217 8.75571 15.0687 9.44278 15.1176C10.2984 15.1749 10.7777 15.2202 10.8808 15.2526C11.1563 15.3348 11.2943 15.5639 11.2943 15.9404C11.2943 16.1085 11.2779 16.2458 11.245 16.352C11.183 16.5244 11.0534 16.649 10.8558 16.7264C10.7447 16.7677 10.4873 16.7882 10.084 16.7882H9.29372C9.08331 16.7837 8.90436 16.7452 8.75613 16.6718C8.54228 16.5655 8.4351 16.3266 8.4351 15.9553L8.43489 15.7775H6.28516C6.28516 16.4733 6.3363 16.9704 6.43963 17.2689C6.62515 17.8051 7.00847 18.1611 7.58991 18.3369C8.06365 18.4804 8.90269 18.5517 10.1066 18.5517C10.8278 18.5517 11.3641 18.5188 11.7146 18.4531C12.5512 18.2976 13.0889 17.9273 13.3283 17.341C13.4604 17.0214 13.5263 16.5172 13.5263 15.8288C13.5263 15.5301 13.5119 15.2613 13.483 15.0237C13.4335 14.6265 13.2784 14.3049 13.0183 14.0588C12.6878 13.7434 12.1551 13.5488 11.4203 13.475C11.1889 13.4504 10.6086 13.4072 9.67944 13.3458L9.24591 13.3153C9.0556 13.303 8.903 13.262 8.78748 13.1923C8.62624 13.0941 8.54582 12.8891 8.54582 12.5777C8.54582 12.2338 8.63665 12.0104 8.81811 11.9077C8.99967 11.8053 9.37174 11.7542 9.93297 11.7542C10.5109 11.7542 10.864 11.8431 10.9919 12.0207C11.0744 12.1407 11.1159 12.3765 11.1159 12.7279ZM6.29332 20.2477L6.61561 20.2154C6.63498 20.3236 6.67435 20.403 6.73362 20.4538C6.793 20.5045 6.873 20.5298 6.97372 20.5298C7.08039 20.5298 7.1607 20.5073 7.21486 20.4623C7.26892 20.4172 7.2959 20.3645 7.2959 20.3041C7.2959 20.2654 7.28455 20.2325 7.26194 20.2052C7.23923 20.178 7.19965 20.1545 7.14309 20.1342C7.10434 20.1211 7.01622 20.0974 6.87862 20.0634C6.70144 20.0198 6.57727 19.9661 6.50582 19.9023C6.4054 19.8126 6.3552 19.7033 6.3552 19.5742C6.3552 19.4913 6.37884 19.4136 6.42624 19.3414C6.47353 19.2691 6.54186 19.214 6.63092 19.1762C6.72008 19.1385 6.82768 19.1195 6.95372 19.1195C7.15955 19.1195 7.31444 19.1646 7.4185 19.2547C7.52256 19.3448 7.57714 19.4651 7.58235 19.6155L7.25038 19.6285C7.23621 19.5444 7.2058 19.4841 7.15913 19.4471C7.11257 19.4103 7.04268 19.3918 6.94945 19.3918C6.8532 19.3918 6.778 19.4115 6.72352 19.451C6.68842 19.4762 6.67092 19.51 6.67092 19.5523C6.67092 19.591 6.68738 19.624 6.72019 19.6516C6.76185 19.6865 6.8632 19.7229 7.02424 19.7605C7.18517 19.7983 7.30423 19.8374 7.38142 19.8781C7.4585 19.9187 7.51891 19.9742 7.56256 20.0445C7.6061 20.115 7.62797 20.202 7.62797 20.3055C7.62797 20.3995 7.60183 20.4874 7.54954 20.5694C7.49725 20.6513 7.4234 20.7122 7.32788 20.7521C7.23236 20.7919 7.1133 20.8119 6.9707 20.8119C6.76321 20.8119 6.60384 20.7639 6.49259 20.6678C6.38145 20.5717 6.31499 20.4318 6.29332 20.2477ZM7.97207 19.5993H8.28779V20.7827H7.97207V19.5993ZM7.97207 19.1486H8.28779V19.4372H7.97207V19.1486ZM9.44572 20.7826H9.76145V20.0457C9.76145 19.9542 9.75561 19.8839 9.74405 19.8348C9.73249 19.7856 9.71197 19.7417 9.68249 19.703C9.65301 19.6643 9.60957 19.6325 9.55218 19.6076C9.49479 19.5827 9.43135 19.5701 9.36198 19.5701C9.20469 19.5701 9.07407 19.6378 8.97042 19.7732V19.5993H8.67752V20.7826H8.99324V20.2455C8.99324 20.1129 9.00115 20.0222 9.01719 19.9731C9.03313 19.9239 9.06261 19.8845 9.10573 19.8547C9.14886 19.8249 9.1975 19.81 9.25177 19.81C9.29406 19.81 9.33031 19.8205 9.36041 19.8412C9.39052 19.8621 9.41218 19.8914 9.42562 19.929C9.43895 19.9666 9.44572 20.0494 9.44572 20.1774V20.7826ZM10.3999 20.1655C10.3999 20.2914 10.4241 20.3836 10.4726 20.442C10.5211 20.5007 10.5809 20.5298 10.652 20.5298C10.7281 20.5298 10.7925 20.4998 10.8451 20.4399C10.8976 20.3799 10.924 20.291 10.924 20.1732C10.924 20.0504 10.8988 19.9591 10.8485 19.8994C10.798 19.8399 10.7345 19.81 10.6575 19.81C10.5827 19.81 10.5211 19.8394 10.4726 19.8978C10.4241 19.9564 10.3999 20.0455 10.3999 20.1655ZM10.1167 20.8605L10.4748 20.8994C10.4808 20.9434 10.4947 20.9737 10.5163 20.9903C10.5463 21.014 10.5935 21.0258 10.6579 21.0258C10.7403 21.0258 10.802 21.0136 10.8433 20.9891C10.8709 20.9727 10.8919 20.9464 10.9062 20.9099C10.9159 20.8838 10.9208 20.836 10.9208 20.766L10.9217 20.5933C10.8286 20.7196 10.7105 20.7826 10.5671 20.7826C10.4073 20.7826 10.2808 20.7154 10.1875 20.5806C10.1142 20.4742 10.0777 20.3416 10.0777 20.1831C10.0777 19.9843 10.1256 19.8325 10.2215 19.7275C10.3175 19.6226 10.4368 19.5701 10.5794 19.5701C10.7265 19.5701 10.8479 19.6346 10.9435 19.7632V19.5993H11.2365V20.663C11.2365 20.803 11.2249 20.9076 11.2017 20.9766C11.1786 21.046 11.1461 21.1002 11.1042 21.1396C11.0623 21.1791 11.0065 21.21 10.9366 21.2323C10.8667 21.2546 10.7784 21.2658 10.6716 21.2658C10.4699 21.2658 10.3267 21.2311 10.2423 21.1619C10.1578 21.0927 10.1156 21.005 10.1156 20.8986C10.1156 20.8882 10.116 20.8755 10.1167 20.8605ZM11.9302 19.1486H11.6145V20.7826H11.9302V19.1486ZM13.0296 20.0921C13.0274 20 13.0038 19.93 12.9587 19.882C12.9137 19.8341 12.8589 19.81 12.7943 19.81C12.7252 19.81 12.6681 19.8354 12.6231 19.886C12.578 19.9365 12.556 20.0053 12.5567 20.0921H13.0296ZM13.0134 20.4099L13.3258 20.4618C13.2854 20.5758 13.2216 20.6627 13.1344 20.7224C13.0472 20.7821 12.938 20.8119 12.8071 20.8119C12.5997 20.8119 12.4463 20.7444 12.3468 20.6094C12.2682 20.5013 12.2289 20.3648 12.2289 20.1999C12.2289 20.0032 12.2805 19.8489 12.3838 19.7374C12.487 19.6258 12.6175 19.5701 12.7753 19.5701C12.9527 19.5701 13.0926 19.6287 13.1951 19.7456C13.2976 19.8627 13.3466 20.0419 13.3421 20.2834H12.5512C12.5534 20.3766 12.579 20.449 12.6279 20.5009C12.6769 20.5525 12.7379 20.5785 12.8111 20.5785C12.8608 20.5785 12.9026 20.5652 12.9365 20.5385C12.9703 20.512 12.9961 20.469 13.0134 20.4099ZM14.3751 19.1486V20.7826H15.6218V20.5071H14.7072V20.0629H15.5275V19.7874H14.7072V19.4243H15.5893V19.1486H14.3751ZM16.7504 20.7826V20.6054C16.7069 20.6686 16.65 20.7188 16.5792 20.756C16.5085 20.7932 16.4339 20.8119 16.3554 20.8119C16.2753 20.8119 16.2036 20.7943 16.14 20.7594C16.0764 20.7244 16.0304 20.6752 16.002 20.612C15.9735 20.5488 15.9594 20.4613 15.9594 20.3497V19.5993H16.2751V20.1435C16.2751 20.3101 16.2808 20.4122 16.2925 20.4497C16.304 20.4874 16.3251 20.5171 16.3557 20.5391C16.3863 20.561 16.4251 20.5719 16.4722 20.5719C16.5259 20.5719 16.5741 20.5574 16.6166 20.5279C16.6592 20.4985 16.6883 20.4621 16.704 20.4186C16.7197 20.3751 16.7276 20.2685 16.7276 20.099V19.5993H17.0433V20.7826H16.7504ZM17.4214 20.7826H17.7371V20.4167C17.7371 20.2152 17.746 20.0828 17.7636 20.0196C17.7812 19.9564 17.8053 19.9127 17.8361 19.8884C17.8668 19.8644 17.9042 19.8522 17.9485 19.8522C17.9941 19.8522 18.0437 19.8693 18.0968 19.9035L18.1928 19.6295C18.1264 19.59 18.0572 19.5701 17.9855 19.5701C17.9347 19.5701 17.8894 19.5832 17.8494 19.6093C17.8094 19.6354 17.7644 19.6881 17.7143 19.7676V19.5993H17.4214V20.7826ZM18.6425 20.191C18.6425 20.309 18.6705 20.3991 18.7266 20.4618C18.7828 20.5245 18.8519 20.5558 18.9343 20.5558C19.0166 20.5558 19.0857 20.5245 19.1414 20.4618C19.1971 20.3991 19.225 20.3081 19.225 20.1888C19.225 20.0725 19.1971 19.9829 19.1414 19.9203C19.0857 19.8577 19.0166 19.8263 18.9343 19.8263C18.8519 19.8263 18.7828 19.8577 18.7266 19.9203C18.6705 19.9829 18.6425 20.0732 18.6425 20.191ZM18.3202 20.1742C18.3202 20.0698 18.3459 19.9687 18.3975 19.871C18.4489 19.7734 18.5219 19.6988 18.6163 19.6473C18.7107 19.5959 18.8162 19.5701 18.9327 19.5701C19.1126 19.5701 19.26 19.6284 19.375 19.7452C19.4898 19.8619 19.5473 20.0094 19.5473 20.1876C19.5473 20.3673 19.4892 20.5164 19.3732 20.6346C19.2571 20.7528 19.111 20.8119 18.9349 20.8119C18.8259 20.8119 18.7219 20.7872 18.6231 20.7381C18.5241 20.6889 18.4489 20.6168 18.3975 20.5216C18.3459 20.4265 18.3202 20.3108 18.3202 20.1742ZM20.9074 19.8911V19.4242H21.067C21.1861 19.4242 21.2653 19.428 21.3048 19.4355C21.3583 19.4452 21.4026 19.4695 21.4376 19.5084C21.4726 19.5473 21.4901 19.5967 21.4901 19.6565C21.4901 19.7052 21.4776 19.7478 21.4527 19.7845C21.4278 19.8212 21.3933 19.8482 21.3495 19.8654C21.3055 19.8826 21.2184 19.8911 21.0882 19.8911H20.9074ZM20.5754 19.1486V20.7826H20.9074V20.1667H21.1232C21.2729 20.1667 21.3873 20.1589 21.4663 20.1432C21.5245 20.1306 21.5816 20.1049 21.6379 20.0657C21.6941 20.0267 21.7406 19.973 21.777 19.9047C21.8136 19.8362 21.8318 19.7519 21.8318 19.6516C21.8318 19.5215 21.8002 19.4153 21.7367 19.3333C21.6733 19.2511 21.5947 19.1977 21.5007 19.1732C21.4396 19.1569 21.3082 19.1486 21.1069 19.1486H20.5754ZM22.8238 20.2154C22.7835 20.2288 22.7199 20.2448 22.6328 20.2635C22.5457 20.2821 22.4887 20.3004 22.4621 20.3183C22.421 20.3474 22.4007 20.3844 22.4007 20.4291C22.4007 20.4732 22.417 20.5111 22.4497 20.5433C22.4825 20.5754 22.5241 20.5914 22.5749 20.5914C22.6314 20.5914 22.6853 20.5728 22.7367 20.5355C22.7747 20.5071 22.7997 20.4724 22.8115 20.4314C22.8197 20.4045 22.8238 20.3533 22.8238 20.2779V20.2154ZM22.4007 19.9592L22.1175 19.9073C22.1496 19.7927 22.2048 19.7079 22.2831 19.6528C22.3615 19.5977 22.478 19.5701 22.6325 19.5701C22.7728 19.5701 22.8774 19.5867 22.946 19.6197C23.0147 19.653 23.0631 19.6951 23.091 19.746C23.119 19.7969 23.1331 19.8906 23.1331 20.0268L23.1299 20.3931C23.1299 20.4972 23.1349 20.5742 23.1449 20.6236C23.155 20.6731 23.1738 20.7261 23.2014 20.7826H22.8889C22.8806 20.7622 22.8706 20.7318 22.8586 20.6916C22.8534 20.6732 22.8497 20.6612 22.8476 20.6552C22.7938 20.7074 22.7364 20.7466 22.6753 20.7728C22.6141 20.7988 22.549 20.8119 22.4797 20.8119C22.3574 20.8119 22.2609 20.7787 22.1905 20.7125C22.1201 20.6462 22.0849 20.5624 22.0849 20.4611C22.0849 20.3942 22.1009 20.3345 22.1329 20.282C22.1651 20.2295 22.2101 20.1892 22.2679 20.1613C22.3258 20.1335 22.4093 20.1089 22.5182 20.088C22.6652 20.0606 22.7671 20.0349 22.8238 20.0111V19.9794C22.8238 19.9184 22.8088 19.8749 22.7788 19.8489C22.7487 19.823 22.6922 19.81 22.6088 19.81C22.5526 19.81 22.5087 19.8211 22.4772 19.8431C22.4456 19.8652 22.4201 19.9039 22.4007 19.9592ZM23.6949 19.5993H23.3597L23.8127 20.7859C23.794 20.8527 23.767 20.9078 23.7317 20.9512C23.6964 20.9944 23.6421 21.016 23.5685 21.016C23.5288 21.016 23.484 21.0113 23.4345 21.0014L23.4639 21.2468C23.5221 21.2594 23.5817 21.2658 23.6422 21.2658C23.702 21.2658 23.7557 21.2594 23.8032 21.2467C23.8507 21.2341 23.8905 21.2163 23.9231 21.1936C23.9556 21.1709 23.9844 21.1413 24.0094 21.1049C24.0344 21.0683 24.0608 21.0155 24.0885 20.9462L24.5837 19.5993H24.2582L23.9798 20.4394L23.6949 19.5993ZM24.8298 19.5993H25.1195V19.7609C25.2236 19.6337 25.3474 19.5701 25.4912 19.5701C25.5674 19.5701 25.6337 19.5857 25.6898 19.6169C25.7459 19.6483 25.792 19.6956 25.8278 19.7588C25.8801 19.6956 25.9367 19.6483 25.9971 19.6169C26.0577 19.5857 26.1222 19.5701 26.1909 19.5701C26.2784 19.5701 26.3524 19.5878 26.4129 19.6233C26.4734 19.6584 26.5187 19.7104 26.5486 19.779C26.5702 19.8295 26.581 19.9114 26.581 20.0246V20.7826H26.2653V20.1049C26.2653 19.9872 26.2545 19.9114 26.2329 19.8771C26.2037 19.8323 26.1591 19.81 26.0987 19.81C26.0547 19.81 26.0132 19.8234 25.9745 19.8503C25.9357 19.8771 25.9078 19.9163 25.8907 19.9681C25.8735 20.0198 25.8649 20.1015 25.8649 20.2132V20.7826H25.5492V20.1329C25.5492 20.0173 25.5437 19.943 25.5324 19.9094C25.5213 19.8759 25.504 19.851 25.4804 19.8346C25.4569 19.8183 25.4251 19.81 25.3848 19.81C25.3364 19.81 25.2927 19.8231 25.254 19.8491C25.2152 19.8752 25.1875 19.9128 25.1706 19.9619C25.1539 20.0111 25.1455 20.0925 25.1455 20.2064V20.7826H24.8298V19.5993ZM27.5976 19.882C27.6428 19.93 27.6663 20 27.6686 20.0921H27.1957C27.195 20.0053 27.2171 19.9365 27.2622 19.886C27.3071 19.8354 27.3643 19.81 27.4332 19.81C27.4978 19.81 27.5527 19.8341 27.5976 19.882ZM27.9649 20.4618L27.6524 20.4099C27.6351 20.469 27.6095 20.512 27.5755 20.5385C27.5416 20.5652 27.4998 20.5785 27.4501 20.5785C27.3769 20.5785 27.3159 20.5525 27.267 20.5009C27.2181 20.449 27.1924 20.3766 27.1902 20.2834H27.9812C27.9857 20.0419 27.9366 19.8627 27.8341 19.7456C27.7316 19.6287 27.5918 19.5701 27.4144 19.5701C27.2565 19.5701 27.1261 19.6258 27.0228 19.7374C26.9196 19.8489 26.8679 20.0032 26.8679 20.1999C26.8679 20.3648 26.9071 20.5013 26.9858 20.6094C27.0854 20.7444 27.2388 20.8119 27.4461 20.8119C27.5771 20.8119 27.6862 20.7821 27.7735 20.7224C27.8607 20.6627 27.9244 20.5758 27.9649 20.4618ZM29.3862 20.7826H29.0705V20.1774C29.0705 20.0494 29.0638 19.9666 29.0505 19.929C29.0371 19.8914 29.0153 19.8621 28.9852 19.8412C28.9551 19.8205 28.9189 19.81 28.8766 19.81C28.8224 19.81 28.7737 19.8249 28.7306 19.8547C28.6875 19.8845 28.658 19.9239 28.642 19.9731C28.6261 20.0222 28.618 20.1129 28.618 20.2455V20.7826H28.3023V19.5993H28.5952V19.7732C28.699 19.6378 28.8295 19.5701 28.9868 19.5701C29.0561 19.5701 29.1197 19.5827 29.177 19.6076C29.2344 19.6325 29.2779 19.6643 29.3074 19.703C29.3369 19.7417 29.3573 19.7856 29.3688 19.8348C29.3805 19.8839 29.3862 19.9542 29.3862 20.0457V20.7826ZM30.3178 19.8489V19.5993H30.1029V19.1779L29.7872 19.3627V19.5993H29.644V19.8489H29.7872V20.3662C29.7872 20.4771 29.7904 20.5509 29.7972 20.5874C29.8053 20.6388 29.8199 20.6796 29.8411 20.7096C29.8623 20.7398 29.8955 20.7645 29.9408 20.7834C29.9861 20.8024 30.0368 20.8119 30.0934 20.8119C30.1853 20.8119 30.2677 20.7963 30.3405 20.765L30.3129 20.5225C30.2586 20.5425 30.2173 20.5526 30.1886 20.5526C30.168 20.5526 30.1507 20.5473 30.1364 20.5369C30.1221 20.5264 30.1129 20.5132 30.109 20.4972C30.1049 20.4812 30.1029 20.4246 30.1029 20.3277V19.8489H30.3178ZM30.4953 20.4488L30.811 20.4001C30.8245 20.4606 30.8517 20.5065 30.8926 20.5379C30.9336 20.5693 30.9909 20.5849 31.0647 20.5849C31.146 20.5849 31.2072 20.57 31.2481 20.5401C31.2757 20.519 31.2896 20.4911 31.2896 20.4558C31.2896 20.432 31.282 20.4121 31.267 20.3965C31.2511 20.3814 31.2159 20.3677 31.1611 20.3549C30.906 20.2988 30.7443 20.2476 30.6761 20.2014C30.5816 20.1374 30.5344 20.0483 30.5344 19.9345C30.5344 19.8316 30.5751 19.7452 30.6569 19.6752C30.7388 19.6052 30.8655 19.5701 31.0373 19.5701C31.2008 19.5701 31.3223 19.5964 31.4019 19.6488C31.4813 19.7013 31.5361 19.7788 31.5662 19.8814L31.27 19.9365C31.2572 19.8905 31.2328 19.8551 31.197 19.8306C31.161 19.8061 31.1099 19.7938 31.0435 19.7938C30.9598 19.7938 30.8997 19.8053 30.8635 19.8287C30.8393 19.8451 30.8273 19.8663 30.8273 19.8925C30.8273 19.915 30.8377 19.9341 30.8587 19.9499C30.8872 19.9707 30.9856 20.0003 31.1538 20.0385C31.3221 20.0766 31.4396 20.1233 31.5063 20.1786C31.5722 20.2346 31.6053 20.3128 31.6053 20.4129C31.6053 20.5219 31.5597 20.6157 31.4687 20.6941C31.3776 20.7727 31.243 20.8119 31.0647 20.8119C30.9029 20.8119 30.7748 20.7792 30.6804 20.7142C30.586 20.6489 30.5244 20.5606 30.4953 20.4488ZM33.2975 19.5312L33.5269 20.1375H33.0758L33.2975 19.5312ZM33.7782 20.7826H34.1357L33.4733 19.1486H33.1241L32.4886 20.7826H32.8399L32.9751 20.4131H33.6364L33.7782 20.7826ZM34.6776 20.7826H34.3619V19.5993H34.6548V19.7676C34.7049 19.6881 34.7498 19.6354 34.7899 19.6093C34.8298 19.5832 34.8751 19.5701 34.9261 19.5701C34.9977 19.5701 35.0668 19.59 35.1334 19.6295L35.0373 19.9035C34.9841 19.8693 34.9346 19.8522 34.889 19.8522C34.8446 19.8522 34.8072 19.8644 34.7765 19.8884C34.7458 19.9127 34.7216 19.9564 34.7041 20.0196C34.6864 20.0828 34.6776 20.2152 34.6776 20.4167V20.7826ZM35.9743 19.882C36.0193 19.93 36.0429 20 36.0452 20.0921H35.5723C35.5715 20.0053 35.5936 19.9365 35.6387 19.886C35.6837 19.8354 35.7407 19.81 35.8099 19.81C35.8744 19.81 35.9292 19.8341 35.9743 19.882ZM36.3414 20.4618L36.0289 20.4099C36.0115 20.469 35.9859 20.512 35.952 20.5385C35.9181 20.5652 35.8763 20.5785 35.8265 20.5785C35.7535 20.5785 35.6924 20.5525 35.6434 20.5009C35.5945 20.449 35.5689 20.3766 35.5666 20.2834H36.3576C36.3621 20.0419 36.313 19.8627 36.2107 19.7456C36.108 19.6287 35.9682 19.5701 35.7909 19.5701C35.6331 19.5701 35.5024 19.6258 35.3993 19.7374C35.296 19.8489 35.2443 20.0032 35.2443 20.1999C35.2443 20.3648 35.2836 20.5013 35.3622 20.6094C35.4617 20.7444 35.6153 20.8119 35.8226 20.8119C35.9536 20.8119 36.0627 20.7821 36.1499 20.7224C36.2371 20.6627 36.301 20.5758 36.3414 20.4618ZM37.3362 20.2154C37.296 20.2288 37.2323 20.2448 37.1452 20.2635C37.0581 20.2821 37.0012 20.3004 36.9745 20.3183C36.9334 20.3474 36.9131 20.3844 36.9131 20.4291C36.9131 20.4732 36.9294 20.5111 36.9622 20.5433C36.9949 20.5754 37.0365 20.5914 37.0873 20.5914C37.1438 20.5914 37.1977 20.5728 37.2491 20.5355C37.2871 20.5071 37.3121 20.4724 37.3239 20.4314C37.3321 20.4045 37.3362 20.3533 37.3362 20.2779V20.2154ZM36.9131 19.9592L36.6299 19.9073C36.662 19.7927 36.7172 19.7079 36.7955 19.6528C36.8739 19.5977 36.9904 19.5701 37.1449 19.5701C37.2852 19.5701 37.3898 19.5867 37.4584 19.6197C37.5271 19.653 37.5755 19.6951 37.6034 19.746C37.6314 19.7969 37.6455 19.8906 37.6455 20.0268L37.6423 20.3931C37.6423 20.4972 37.6473 20.5742 37.6573 20.6236C37.6674 20.6731 37.6862 20.7261 37.7137 20.7826H37.4013C37.393 20.7622 37.3831 20.7318 37.371 20.6916C37.3659 20.6732 37.3621 20.6612 37.36 20.6552C37.3062 20.7074 37.2489 20.7466 37.1878 20.7728C37.1266 20.7988 37.0614 20.8119 36.9921 20.8119C36.8698 20.8119 36.7733 20.7787 36.7029 20.7125C36.6326 20.6462 36.5974 20.5624 36.5974 20.4611C36.5974 20.3942 36.6133 20.3345 36.6454 20.282C36.6775 20.2295 36.7225 20.1892 36.7803 20.1613C36.8382 20.1335 36.9217 20.1089 37.0306 20.088C37.1776 20.0606 37.2795 20.0349 37.3362 20.0111V19.9794C37.3362 19.9184 37.3212 19.8749 37.2912 19.8489C37.2612 19.823 37.2046 19.81 37.1212 19.81C37.065 19.81 37.0211 19.8211 36.9896 19.8431C36.9581 19.8652 36.9325 19.9039 36.9131 19.9592ZM33.3808 11.7007L34.4635 15.4077H32.3301L33.3808 11.7007ZM31.8329 17.0738H34.9225L35.3633 18.5518H37.7039L35.0925 10H31.6068L29.027 18.5518H31.4178L31.8329 17.0738Z" fill="#10298E"/>
<path fill-rule="evenodd" clip-rule="evenodd" d="M19.5296 11.2032C20.4827 11.2032 21.3333 11.6405 21.8925 12.3254L22.3906 11.2617C21.6115 10.5283 20.5512 10.0762 19.3818 10.0762C17.561 10.0762 16.0034 11.1714 15.3642 12.7219H14.3929L13.8193 13.9465H15.0689C15.0595 14.0601 15.0535 14.1738 15.0535 14.2898C15.0535 14.4302 15.0608 14.5689 15.0747 14.7059H14.4467L13.8733 15.931H15.394C16.0515 17.4422 17.5895 18.5031 19.3818 18.5031C20.285 18.5031 21.1231 18.2336 21.817 17.7731V16.2718C21.2582 16.9055 20.4408 17.306 19.5296 17.306C18.4644 17.306 17.5275 16.7589 16.9819 15.931H20.1662L20.7397 14.7059H16.5133C16.4916 14.5585 16.4799 14.4079 16.4799 14.2544C16.4799 14.1507 16.4853 14.048 16.4953 13.9465H21.0951L21.6685 12.7219H16.8931C17.4212 11.8141 18.404 11.2032 19.5296 11.2032Z" fill="#FFBE00"/>
</svg>
